<svg width="116" height="20" viewBox="0 0 116 20" fill="none" xmlns="http://www.w3.org/2000/svg">
<path d="M9.99984 1.66666L12.5748 6.88332L18.3332 7.72499L14.1665 11.7833L15.1498 17.5167L9.99984 14.8083L4.84984 17.5167L5.83317 11.7833L1.6665 7.72499L7.42484 6.88332L9.99984 1.66666Z" stroke="#2C2C2C" stroke-width="2" stroke-linecap="round" stroke-linejoin="round"/>
<path d="M33.9998 1.66666L36.5748 6.88332L42.3332 7.72499L38.1665 11.7833L39.1498 17.5167L33.9998 14.8083L28.8498 17.5167L29.8332 11.7833L25.6665 7.72499L31.4248 6.88332L33.9998 1.66666Z" stroke="#2C2C2C" stroke-width="2" stroke-linecap="round" stroke-linejoin="round"/>
<path d="M57.9998 1.66666L60.5748 6.88332L66.3332 7.72499L62.1665 11.7833L63.1498 17.5167L57.9998 14.8083L52.8498 17.5167L53.8332 11.7833L49.6665 7.72499L55.4248 6.88332L57.9998 1.66666Z" stroke="#2C2C2C" stroke-width="2" stroke-linecap="round" stroke-linejoin="round"/>
<path d="M81.9998 1.66666L84.5748 6.88332L90.3332 7.72499L86.1665 11.7833L87.1498 17.5167L81.9998 14.8083L76.8498 17.5167L77.8332 11.7833L73.6665 7.72499L79.4248 6.88332L81.9998 1.66666Z" stroke="#2C2C2C" stroke-width="2" stroke-linecap="round" stroke-linejoin="round"/>
<path d="M106 1.66666L108.575 6.88332L114.333 7.72499L110.167 11.7833L111.15 17.5167L106 14.8083L100.85 17.5167L101.833 11.7833L97.6665 7.72499L103.425 6.88332L106 1.66666Z" stroke="#2C2C2C" stroke-width="2" stroke-linecap="round" stroke-linejoin="round"/>
</svg>
